# xmcd
#
# Track frame offsets: 
#        150
#        14218
#        30658
#        46388
#        64069
#        80558
#        95502
#        114316
#        133668
#
# Disc length: 2119 seconds
#
# Revision: 0
# Processed by: cddbd v1.5PL3 Copyright (c) Steve Scherf et al.
# Submitted via: ExactAudioCopy v0.95a4
#
DISCID=77084509
DTITLE=LUTHER ALLISON - NIGHT LIFE
DYEAR=1900
DGENRE=Blues
TTITLE0=Turn Back The Hands Of Time
TTITLE1=I Can Make It Thru The Day
TTITLE2=The Bum Is Mine
TTITLE3=Hollywood Be Thy Name
TTITLE4=That's What LOve Will Make You Do
TTITLE5=Night Life
TTITLE6=Full Speed Ahead
TTITLE7=Cross-Cut Saw
TTITLE8=Bloomington Closing
EXTD=
EXTT0=
EXTT1=
EXTT2=
EXTT3=
EXTT4=
EXTT5=
EXTT6=
EXTT7=
EXTT8=
PLAYORDER=
